<mxfile host="app.diagrams.net" modified="2023-12-22T07:13:46.298Z" agent="Mozilla/5.0 (Windows NT 10.0; Win64; x64) AppleWebKit/537.36 (KHTML, like Gecko) Chrome/119.0.0.0 Safari/537.36" etag="_WfY8WLRZuSdRnWHd9Wp" version="22.1.11" type="github">
  <diagram id="C5RBs43oDa-KdzZeNtuy" name="Page-1">
    <mxGraphModel dx="1434" dy="756" grid="1" gridSize="10" guides="0" tooltips="1" connect="1" arrows="1" fold="1" page="1" pageScale="1" pageWidth="827" pageHeight="1169" math="0" shadow="0">
      <root>
        <mxCell id="WIyWlLk6GJQsqaUBKTNV-0" />
        <mxCell id="WIyWlLk6GJQsqaUBKTNV-1" parent="WIyWlLk6GJQsqaUBKTNV-0" />
        <mxCell id="7zfjWZ3S8a0Srfy_rYdF-66" value="" style="rounded=0;whiteSpace=wrap;html=1;" vertex="1" parent="WIyWlLk6GJQsqaUBKTNV-1">
          <mxGeometry y="1520" width="810" height="680" as="geometry" />
        </mxCell>
        <mxCell id="7zfjWZ3S8a0Srfy_rYdF-65" value="" style="rounded=0;whiteSpace=wrap;html=1;" vertex="1" parent="WIyWlLk6GJQsqaUBKTNV-1">
          <mxGeometry x="10" y="650" width="810" height="680" as="geometry" />
        </mxCell>
        <mxCell id="7zfjWZ3S8a0Srfy_rYdF-64" value="" style="rounded=0;whiteSpace=wrap;html=1;" vertex="1" parent="WIyWlLk6GJQsqaUBKTNV-1">
          <mxGeometry x="10" y="10" width="810" height="600" as="geometry" />
        </mxCell>
        <mxCell id="7zfjWZ3S8a0Srfy_rYdF-35" value="" style="rounded=0;whiteSpace=wrap;html=1;" vertex="1" parent="WIyWlLk6GJQsqaUBKTNV-1">
          <mxGeometry x="360" y="830" width="430" height="260" as="geometry" />
        </mxCell>
        <mxCell id="7zfjWZ3S8a0Srfy_rYdF-6" value="" style="edgeStyle=orthogonalEdgeStyle;rounded=0;orthogonalLoop=1;jettySize=auto;html=1;" edge="1" parent="WIyWlLk6GJQsqaUBKTNV-1" source="7zfjWZ3S8a0Srfy_rYdF-0" target="7zfjWZ3S8a0Srfy_rYdF-1">
          <mxGeometry relative="1" as="geometry" />
        </mxCell>
        <mxCell id="7zfjWZ3S8a0Srfy_rYdF-0" value="Actor" style="shape=umlActor;verticalLabelPosition=bottom;verticalAlign=top;html=1;outlineConnect=0;" vertex="1" parent="WIyWlLk6GJQsqaUBKTNV-1">
          <mxGeometry x="100" y="230" width="30" height="60" as="geometry" />
        </mxCell>
        <mxCell id="7zfjWZ3S8a0Srfy_rYdF-3" value="" style="edgeStyle=orthogonalEdgeStyle;rounded=0;orthogonalLoop=1;jettySize=auto;html=1;" edge="1" parent="WIyWlLk6GJQsqaUBKTNV-1" source="7zfjWZ3S8a0Srfy_rYdF-1" target="7zfjWZ3S8a0Srfy_rYdF-2">
          <mxGeometry relative="1" as="geometry" />
        </mxCell>
        <mxCell id="7zfjWZ3S8a0Srfy_rYdF-1" value="waf" style="rounded=1;whiteSpace=wrap;html=1;" vertex="1" parent="WIyWlLk6GJQsqaUBKTNV-1">
          <mxGeometry x="210" y="230" width="121" height="60" as="geometry" />
        </mxCell>
        <mxCell id="7zfjWZ3S8a0Srfy_rYdF-5" value="" style="edgeStyle=orthogonalEdgeStyle;rounded=0;orthogonalLoop=1;jettySize=auto;html=1;" edge="1" parent="WIyWlLk6GJQsqaUBKTNV-1" source="7zfjWZ3S8a0Srfy_rYdF-2" target="7zfjWZ3S8a0Srfy_rYdF-4">
          <mxGeometry relative="1" as="geometry" />
        </mxCell>
        <mxCell id="7zfjWZ3S8a0Srfy_rYdF-2" value="nginx" style="rounded=1;whiteSpace=wrap;html=1;" vertex="1" parent="WIyWlLk6GJQsqaUBKTNV-1">
          <mxGeometry x="411" y="230" width="121" height="60" as="geometry" />
        </mxCell>
        <mxCell id="7zfjWZ3S8a0Srfy_rYdF-4" value="后端" style="whiteSpace=wrap;html=1;rounded=1;" vertex="1" parent="WIyWlLk6GJQsqaUBKTNV-1">
          <mxGeometry x="612.5" y="230" width="120" height="60" as="geometry" />
        </mxCell>
        <mxCell id="7zfjWZ3S8a0Srfy_rYdF-13" value="" style="curved=1;endArrow=classic;html=1;rounded=0;entryX=0.5;entryY=0;entryDx=0;entryDy=0;exitX=0.5;exitY=0;exitDx=0;exitDy=0;exitPerimeter=0;edgeStyle=orthogonalEdgeStyle;dashed=1;dashPattern=8 8;" edge="1" parent="WIyWlLk6GJQsqaUBKTNV-1" source="7zfjWZ3S8a0Srfy_rYdF-0" target="7zfjWZ3S8a0Srfy_rYdF-2">
          <mxGeometry width="50" height="50" relative="1" as="geometry">
            <mxPoint x="390" y="410" as="sourcePoint" />
            <mxPoint x="440" y="360" as="targetPoint" />
            <Array as="points">
              <mxPoint x="115" y="140" />
              <mxPoint x="472" y="140" />
            </Array>
          </mxGeometry>
        </mxCell>
        <mxCell id="7zfjWZ3S8a0Srfy_rYdF-15" value="通过账号密码访问nginx" style="rounded=1;whiteSpace=wrap;html=1;" vertex="1" parent="WIyWlLk6GJQsqaUBKTNV-1">
          <mxGeometry x="220" y="110" width="120" height="60" as="geometry" />
        </mxCell>
        <mxCell id="7zfjWZ3S8a0Srfy_rYdF-17" style="edgeStyle=orthogonalEdgeStyle;orthogonalLoop=1;jettySize=auto;html=1;entryX=0.571;entryY=0.983;entryDx=0;entryDy=0;entryPerimeter=0;dashed=1;curved=1;" edge="1" parent="WIyWlLk6GJQsqaUBKTNV-1" source="7zfjWZ3S8a0Srfy_rYdF-0" target="7zfjWZ3S8a0Srfy_rYdF-4">
          <mxGeometry relative="1" as="geometry">
            <Array as="points">
              <mxPoint x="115" y="370" />
              <mxPoint x="681" y="370" />
            </Array>
          </mxGeometry>
        </mxCell>
        <mxCell id="7zfjWZ3S8a0Srfy_rYdF-19" value="通过业务的账号密码登录" style="rounded=1;whiteSpace=wrap;html=1;" vertex="1" parent="WIyWlLk6GJQsqaUBKTNV-1">
          <mxGeometry x="340" y="340" width="120" height="60" as="geometry" />
        </mxCell>
        <mxCell id="7zfjWZ3S8a0Srfy_rYdF-20" value="注意事项:&amp;nbsp;&lt;br&gt;&lt;br&gt;1. 用户在浏览器上输入地址回车后，会提示nginx basic authorize的账号登录框，此时需要输入账号密码才能进入页面&lt;br&gt;&lt;br&gt;2. 通过上一步的操作后，就能访问到业务的登录页面，再输入业务的账号密码，就可以登录到业务页面" style="rounded=0;whiteSpace=wrap;html=1;align=left;" vertex="1" parent="WIyWlLk6GJQsqaUBKTNV-1">
          <mxGeometry x="30" y="430" width="340" height="140" as="geometry" />
        </mxCell>
        <mxCell id="7zfjWZ3S8a0Srfy_rYdF-21" value="方案一" style="rounded=1;whiteSpace=wrap;html=1;" vertex="1" parent="WIyWlLk6GJQsqaUBKTNV-1">
          <mxGeometry x="30" y="30" width="120" height="60" as="geometry" />
        </mxCell>
        <mxCell id="7zfjWZ3S8a0Srfy_rYdF-22" value="" style="edgeStyle=orthogonalEdgeStyle;rounded=0;orthogonalLoop=1;jettySize=auto;html=1;" edge="1" parent="WIyWlLk6GJQsqaUBKTNV-1" source="7zfjWZ3S8a0Srfy_rYdF-23" target="7zfjWZ3S8a0Srfy_rYdF-25">
          <mxGeometry relative="1" as="geometry" />
        </mxCell>
        <mxCell id="7zfjWZ3S8a0Srfy_rYdF-23" value="Actor" style="shape=umlActor;verticalLabelPosition=bottom;verticalAlign=top;html=1;outlineConnect=0;" vertex="1" parent="WIyWlLk6GJQsqaUBKTNV-1">
          <mxGeometry x="100" y="900" width="30" height="60" as="geometry" />
        </mxCell>
        <mxCell id="7zfjWZ3S8a0Srfy_rYdF-24" value="" style="edgeStyle=orthogonalEdgeStyle;rounded=0;orthogonalLoop=1;jettySize=auto;html=1;" edge="1" parent="WIyWlLk6GJQsqaUBKTNV-1" source="7zfjWZ3S8a0Srfy_rYdF-25" target="7zfjWZ3S8a0Srfy_rYdF-27">
          <mxGeometry relative="1" as="geometry" />
        </mxCell>
        <mxCell id="7zfjWZ3S8a0Srfy_rYdF-39" value="" style="edgeStyle=orthogonalEdgeStyle;curved=1;rounded=0;orthogonalLoop=1;jettySize=auto;html=1;endArrow=none;endFill=0;" edge="1" parent="WIyWlLk6GJQsqaUBKTNV-1" source="7zfjWZ3S8a0Srfy_rYdF-25" target="7zfjWZ3S8a0Srfy_rYdF-38">
          <mxGeometry relative="1" as="geometry" />
        </mxCell>
        <mxCell id="7zfjWZ3S8a0Srfy_rYdF-25" value="waf" style="rounded=1;whiteSpace=wrap;html=1;" vertex="1" parent="WIyWlLk6GJQsqaUBKTNV-1">
          <mxGeometry x="210" y="900" width="121" height="60" as="geometry" />
        </mxCell>
        <mxCell id="7zfjWZ3S8a0Srfy_rYdF-26" value="" style="edgeStyle=orthogonalEdgeStyle;rounded=0;orthogonalLoop=1;jettySize=auto;html=1;" edge="1" parent="WIyWlLk6GJQsqaUBKTNV-1" source="7zfjWZ3S8a0Srfy_rYdF-27" target="7zfjWZ3S8a0Srfy_rYdF-28">
          <mxGeometry relative="1" as="geometry" />
        </mxCell>
        <mxCell id="7zfjWZ3S8a0Srfy_rYdF-27" value="nginx" style="rounded=1;whiteSpace=wrap;html=1;" vertex="1" parent="WIyWlLk6GJQsqaUBKTNV-1">
          <mxGeometry x="411" y="900" width="121" height="60" as="geometry" />
        </mxCell>
        <mxCell id="7zfjWZ3S8a0Srfy_rYdF-28" value="后端" style="whiteSpace=wrap;html=1;rounded=1;" vertex="1" parent="WIyWlLk6GJQsqaUBKTNV-1">
          <mxGeometry x="612.5" y="900" width="120" height="60" as="geometry" />
        </mxCell>
        <mxCell id="7zfjWZ3S8a0Srfy_rYdF-29" value="" style="curved=1;endArrow=classic;html=1;rounded=0;exitX=0.5;exitY=0;exitDx=0;exitDy=0;exitPerimeter=0;edgeStyle=orthogonalEdgeStyle;dashed=1;dashPattern=8 8;entryX=0.622;entryY=-0.05;entryDx=0;entryDy=0;entryPerimeter=0;" edge="1" parent="WIyWlLk6GJQsqaUBKTNV-1" source="7zfjWZ3S8a0Srfy_rYdF-23" target="7zfjWZ3S8a0Srfy_rYdF-37">
          <mxGeometry width="50" height="50" relative="1" as="geometry">
            <mxPoint x="390" y="1080" as="sourcePoint" />
            <mxPoint x="430" y="680" as="targetPoint" />
            <Array as="points">
              <mxPoint x="115" y="740" />
              <mxPoint x="575" y="740" />
            </Array>
          </mxGeometry>
        </mxCell>
        <mxCell id="7zfjWZ3S8a0Srfy_rYdF-30" value="通过squid代理去访问网站" style="rounded=1;whiteSpace=wrap;html=1;" vertex="1" parent="WIyWlLk6GJQsqaUBKTNV-1">
          <mxGeometry x="300" y="710" width="120" height="60" as="geometry" />
        </mxCell>
        <mxCell id="7zfjWZ3S8a0Srfy_rYdF-33" value="注意事项：&lt;br&gt;&lt;br&gt;1. 用户需要自行配置http代理&lt;br&gt;&lt;br&gt;2. 最好把代理配置到独立的浏览器，以免影响正常浏览页面" style="rounded=0;whiteSpace=wrap;html=1;align=left;" vertex="1" parent="WIyWlLk6GJQsqaUBKTNV-1">
          <mxGeometry x="30" y="1170" width="340" height="140" as="geometry" />
        </mxCell>
        <mxCell id="7zfjWZ3S8a0Srfy_rYdF-34" value="方案二" style="rounded=1;whiteSpace=wrap;html=1;" vertex="1" parent="WIyWlLk6GJQsqaUBKTNV-1">
          <mxGeometry x="30" y="700" width="120" height="60" as="geometry" />
        </mxCell>
        <mxCell id="7zfjWZ3S8a0Srfy_rYdF-36" value="内部网络" style="text;html=1;align=center;verticalAlign=middle;resizable=0;points=[];autosize=1;strokeColor=none;fillColor=none;" vertex="1" parent="WIyWlLk6GJQsqaUBKTNV-1">
          <mxGeometry x="690" y="840" width="70" height="30" as="geometry" />
        </mxCell>
        <mxCell id="7zfjWZ3S8a0Srfy_rYdF-40" style="edgeStyle=orthogonalEdgeStyle;rounded=0;orthogonalLoop=1;jettySize=auto;html=1;entryX=0.5;entryY=0;entryDx=0;entryDy=0;" edge="1" parent="WIyWlLk6GJQsqaUBKTNV-1" source="7zfjWZ3S8a0Srfy_rYdF-37" target="7zfjWZ3S8a0Srfy_rYdF-25">
          <mxGeometry relative="1" as="geometry">
            <Array as="points">
              <mxPoint x="271" y="860" />
            </Array>
          </mxGeometry>
        </mxCell>
        <mxCell id="7zfjWZ3S8a0Srfy_rYdF-37" value="squid服务器" style="rounded=1;whiteSpace=wrap;html=1;" vertex="1" parent="WIyWlLk6GJQsqaUBKTNV-1">
          <mxGeometry x="520" y="840" width="90" height="40" as="geometry" />
        </mxCell>
        <mxCell id="7zfjWZ3S8a0Srfy_rYdF-38" value="把squid服务器IP添加到白名单" style="whiteSpace=wrap;html=1;rounded=1;" vertex="1" parent="WIyWlLk6GJQsqaUBKTNV-1">
          <mxGeometry x="210.5" y="1010" width="120" height="60" as="geometry" />
        </mxCell>
        <mxCell id="7zfjWZ3S8a0Srfy_rYdF-41" value="" style="rounded=0;whiteSpace=wrap;html=1;" vertex="1" parent="WIyWlLk6GJQsqaUBKTNV-1">
          <mxGeometry x="340" y="1700" width="430" height="260" as="geometry" />
        </mxCell>
        <mxCell id="7zfjWZ3S8a0Srfy_rYdF-61" style="edgeStyle=orthogonalEdgeStyle;curved=1;rounded=0;orthogonalLoop=1;jettySize=auto;html=1;entryX=0;entryY=0.5;entryDx=0;entryDy=0;" edge="1" parent="WIyWlLk6GJQsqaUBKTNV-1" source="7zfjWZ3S8a0Srfy_rYdF-43" target="7zfjWZ3S8a0Srfy_rYdF-51">
          <mxGeometry relative="1" as="geometry" />
        </mxCell>
        <mxCell id="7zfjWZ3S8a0Srfy_rYdF-43" value="Actor" style="shape=umlActor;verticalLabelPosition=bottom;verticalAlign=top;html=1;outlineConnect=0;" vertex="1" parent="WIyWlLk6GJQsqaUBKTNV-1">
          <mxGeometry x="80" y="1770" width="30" height="60" as="geometry" />
        </mxCell>
        <mxCell id="7zfjWZ3S8a0Srfy_rYdF-47" value="" style="edgeStyle=orthogonalEdgeStyle;rounded=0;orthogonalLoop=1;jettySize=auto;html=1;" edge="1" parent="WIyWlLk6GJQsqaUBKTNV-1" source="7zfjWZ3S8a0Srfy_rYdF-48" target="7zfjWZ3S8a0Srfy_rYdF-49">
          <mxGeometry relative="1" as="geometry" />
        </mxCell>
        <mxCell id="7zfjWZ3S8a0Srfy_rYdF-48" value="nginx" style="rounded=1;whiteSpace=wrap;html=1;" vertex="1" parent="WIyWlLk6GJQsqaUBKTNV-1">
          <mxGeometry x="391" y="1770" width="121" height="60" as="geometry" />
        </mxCell>
        <mxCell id="7zfjWZ3S8a0Srfy_rYdF-49" value="后端" style="whiteSpace=wrap;html=1;rounded=1;" vertex="1" parent="WIyWlLk6GJQsqaUBKTNV-1">
          <mxGeometry x="592.5" y="1770" width="120" height="60" as="geometry" />
        </mxCell>
        <mxCell id="7zfjWZ3S8a0Srfy_rYdF-62" style="edgeStyle=orthogonalEdgeStyle;rounded=0;orthogonalLoop=1;jettySize=auto;html=1;" edge="1" parent="WIyWlLk6GJQsqaUBKTNV-1" source="7zfjWZ3S8a0Srfy_rYdF-51" target="7zfjWZ3S8a0Srfy_rYdF-48">
          <mxGeometry relative="1" as="geometry" />
        </mxCell>
        <mxCell id="7zfjWZ3S8a0Srfy_rYdF-51" value="VPN隧道" style="rounded=1;whiteSpace=wrap;html=1;" vertex="1" parent="WIyWlLk6GJQsqaUBKTNV-1">
          <mxGeometry x="160" y="1770" width="120" height="60" as="geometry" />
        </mxCell>
        <mxCell id="7zfjWZ3S8a0Srfy_rYdF-52" value="注意事项：&lt;br&gt;&lt;br&gt;1. 用户需要自行配置vpn客户端&lt;br&gt;&lt;br&gt;2. 需要购买vpn服务、或自建vpn服务" style="rounded=0;whiteSpace=wrap;html=1;align=left;" vertex="1" parent="WIyWlLk6GJQsqaUBKTNV-1">
          <mxGeometry x="10" y="2040" width="340" height="140" as="geometry" />
        </mxCell>
        <mxCell id="7zfjWZ3S8a0Srfy_rYdF-53" value="方案三" style="rounded=1;whiteSpace=wrap;html=1;" vertex="1" parent="WIyWlLk6GJQsqaUBKTNV-1">
          <mxGeometry x="10" y="1630" width="120" height="60" as="geometry" />
        </mxCell>
        <mxCell id="7zfjWZ3S8a0Srfy_rYdF-54" value="内部网络" style="text;html=1;align=center;verticalAlign=middle;resizable=0;points=[];autosize=1;strokeColor=none;fillColor=none;" vertex="1" parent="WIyWlLk6GJQsqaUBKTNV-1">
          <mxGeometry x="670" y="1710" width="70" height="30" as="geometry" />
        </mxCell>
        <mxCell id="7zfjWZ3S8a0Srfy_rYdF-63" value="" style="rounded=0;whiteSpace=wrap;html=1;" vertex="1" parent="WIyWlLk6GJQsqaUBKTNV-1">
          <mxGeometry x="350" y="300" width="120" height="60" as="geometry" />
        </mxCell>
      </root>
    </mxGraphModel>
  </diagram>
</mxfile>
